<svg width="674" height="150" viewBox="0 0 674 150" fill="none" xmlns="http://www.w3.org/2000/svg">
<path d="M77.8125 73.6875V107C76.6875 108.667 74.8958 110.542 72.4375 112.625C69.9792 114.667 66.5833 116.458 62.25 118C57.9583 119.5 52.4167 120.25 45.625 120.25C40.0833 120.25 34.9792 119.292 30.3125 117.375C25.6875 115.417 21.6667 112.583 18.25 108.875C14.875 105.125 12.25 100.583 10.375 95.25C8.54167 89.875 7.625 83.7917 7.625 77V69.9375C7.625 63.1458 8.41667 57.0833 10 51.75C11.625 46.4167 14 41.8958 17.125 38.1875C20.25 34.4375 24.0833 31.6042 28.625 29.6875C33.1667 27.7292 38.375 26.75 44.25 26.75C51.2083 26.75 57.0208 27.9583 61.6875 30.375C66.3958 32.75 70.0625 36.0417 72.6875 40.25C75.3542 44.4583 77.0625 49.25 77.8125 54.625H65.75C65.2083 51.3333 64.125 48.3333 62.5 45.625C60.9167 42.9167 58.6458 40.75 55.6875 39.125C52.7292 37.4583 48.9167 36.625 44.25 36.625C40.0417 36.625 36.3958 37.3958 33.3125 38.9375C30.2292 40.4792 27.6875 42.6875 25.6875 45.5625C23.6875 48.4375 22.1875 51.9167 21.1875 56C20.2292 60.0833 19.75 64.6875 19.75 69.8125V77C19.75 82.25 20.3542 86.9375 21.5625 91.0625C22.8125 95.1875 24.5833 98.7083 26.875 101.625C29.1667 104.5 31.8958 106.688 35.0625 108.188C38.2708 109.688 41.8125 110.438 45.6875 110.438C49.9792 110.438 53.4583 110.083 56.125 109.375C58.7917 108.625 60.875 107.75 62.375 106.75C63.875 105.708 65.0208 104.729 65.8125 103.812V83.4375H44.75V73.6875H77.8125ZM135.938 107.438V72.625C135.938 69.9583 135.396 67.6458 134.312 65.6875C133.271 63.6875 131.688 62.1458 129.562 61.0625C127.438 59.9792 124.812 59.4375 121.688 59.4375C118.771 59.4375 116.208 59.9375 114 60.9375C111.833 61.9375 110.125 63.25 108.875 64.875C107.667 66.5 107.062 68.25 107.062 70.125H95.5C95.5 67.7083 96.125 65.3125 97.375 62.9375C98.625 60.5625 100.417 58.4167 102.75 56.5C105.125 54.5417 107.958 53 111.25 51.875C114.583 50.7083 118.292 50.125 122.375 50.125C127.292 50.125 131.625 50.9583 135.375 52.625C139.167 54.2917 142.125 56.8125 144.25 60.1875C146.417 63.5208 147.5 67.7083 147.5 72.75V104.25C147.5 106.5 147.688 108.896 148.062 111.438C148.479 113.979 149.083 116.167 149.875 118V119H137.812C137.229 117.667 136.771 115.896 136.438 113.688C136.104 111.438 135.938 109.354 135.938 107.438ZM137.938 78L138.062 86.125H126.375C123.083 86.125 120.146 86.3958 117.562 86.9375C114.979 87.4375 112.812 88.2083 111.062 89.25C109.312 90.2917 107.979 91.6042 107.062 93.1875C106.146 94.7292 105.688 96.5417 105.688 98.625C105.688 100.75 106.167 102.688 107.125 104.438C108.083 106.188 109.521 107.583 111.438 108.625C113.396 109.625 115.792 110.125 118.625 110.125C122.167 110.125 125.292 109.375 128 107.875C130.708 106.375 132.854 104.542 134.438 102.375C136.062 100.208 136.938 98.1042 137.062 96.0625L142 101.625C141.708 103.375 140.917 105.312 139.625 107.438C138.333 109.562 136.604 111.604 134.438 113.562C132.312 115.479 129.771 117.083 126.812 118.375C123.896 119.625 120.604 120.25 116.938 120.25C112.354 120.25 108.333 119.354 104.875 117.562C101.458 115.771 98.7917 113.375 96.875 110.375C95 107.333 94.0625 103.938 94.0625 100.188C94.0625 96.5625 94.7708 93.375 96.1875 90.625C97.6042 87.8333 99.6458 85.5208 102.312 83.6875C104.979 81.8125 108.188 80.3958 111.938 79.4375C115.688 78.4792 119.875 78 124.5 78H137.938ZM194 51.375V60.25H157.438V51.375H194ZM169.812 34.9375H181.375V102.25C181.375 104.542 181.729 106.271 182.438 107.438C183.146 108.604 184.062 109.375 185.188 109.75C186.312 110.125 187.521 110.312 188.812 110.312C189.771 110.312 190.771 110.229 191.812 110.062C192.896 109.854 193.708 109.688 194.25 109.562L194.312 119C193.396 119.292 192.188 119.562 190.688 119.812C189.229 120.104 187.458 120.25 185.375 120.25C182.542 120.25 179.938 119.688 177.562 118.562C175.188 117.438 173.292 115.562 171.875 112.938C170.5 110.271 169.812 106.688 169.812 102.188V34.9375ZM219.125 23V119H207.562V23H219.125ZM216.375 82.625L211.562 82.4375C211.604 77.8125 212.292 73.5417 213.625 69.625C214.958 65.6667 216.833 62.2292 219.25 59.3125C221.667 56.3958 224.542 54.1458 227.875 52.5625C231.25 50.9375 234.979 50.125 239.062 50.125C242.396 50.125 245.396 50.5833 248.062 51.5C250.729 52.375 253 53.7917 254.875 55.75C256.792 57.7083 258.25 60.25 259.25 63.375C260.25 66.4583 260.75 70.2292 260.75 74.6875V119H249.125V74.5625C249.125 71.0208 248.604 68.1875 247.562 66.0625C246.521 63.8958 245 62.3333 243 61.375C241 60.375 238.542 59.875 235.625 59.875C232.75 59.875 230.125 60.4792 227.75 61.6875C225.417 62.8958 223.396 64.5625 221.688 66.6875C220.021 68.8125 218.708 71.25 217.75 74C216.833 76.7083 216.375 79.5833 216.375 82.625ZM306.125 120.25C301.417 120.25 297.146 119.458 293.312 117.875C289.521 116.25 286.25 113.979 283.5 111.062C280.792 108.146 278.708 104.688 277.25 100.688C275.792 96.6875 275.062 92.3125 275.062 87.5625V84.9375C275.062 79.4375 275.875 74.5417 277.5 70.25C279.125 65.9167 281.333 62.25 284.125 59.25C286.917 56.25 290.083 53.9792 293.625 52.4375C297.167 50.8958 300.833 50.125 304.625 50.125C309.458 50.125 313.625 50.9583 317.125 52.625C320.667 54.2917 323.562 56.625 325.812 59.625C328.062 62.5833 329.729 66.0833 330.812 70.125C331.896 74.125 332.438 78.5 332.438 83.25V88.4375H281.938V79H320.875V78.125C320.708 75.125 320.083 72.2083 319 69.375C317.958 66.5417 316.292 64.2083 314 62.375C311.708 60.5417 308.583 59.625 304.625 59.625C302 59.625 299.583 60.1875 297.375 61.3125C295.167 62.3958 293.271 64.0208 291.688 66.1875C290.104 68.3542 288.875 71 288 74.125C287.125 77.25 286.688 80.8542 286.688 84.9375V87.5625C286.688 90.7708 287.125 93.7917 288 96.625C288.917 99.4167 290.229 101.875 291.938 104C293.688 106.125 295.792 107.792 298.25 109C300.75 110.208 303.583 110.812 306.75 110.812C310.833 110.812 314.292 109.979 317.125 108.312C319.958 106.646 322.438 104.417 324.562 101.625L331.562 107.188C330.104 109.396 328.25 111.5 326 113.5C323.75 115.5 320.979 117.125 317.688 118.375C314.438 119.625 310.583 120.25 306.125 120.25ZM357.5 62V119H345.938V51.375H357.188L357.5 62ZM378.625 51L378.562 61.75C377.604 61.5417 376.688 61.4167 375.812 61.375C374.979 61.2917 374.021 61.25 372.938 61.25C370.271 61.25 367.917 61.6667 365.875 62.5C363.833 63.3333 362.104 64.5 360.688 66C359.271 67.5 358.146 69.2917 357.312 71.375C356.521 73.4167 356 75.6667 355.75 78.125L352.5 80C352.5 75.9167 352.896 72.0833 353.688 68.5C354.521 64.9167 355.792 61.75 357.5 59C359.208 56.2083 361.375 54.0417 364 52.5C366.667 50.9167 369.833 50.125 373.5 50.125C374.333 50.125 375.292 50.2292 376.375 50.4375C377.458 50.6042 378.208 50.7917 378.625 51ZM458.312 73.6875V107C457.188 108.667 455.396 110.542 452.938 112.625C450.479 114.667 447.083 116.458 442.75 118C438.458 119.5 432.917 120.25 426.125 120.25C420.583 120.25 415.479 119.292 410.812 117.375C406.188 115.417 402.167 112.583 398.75 108.875C395.375 105.125 392.75 100.583 390.875 95.25C389.042 89.875 388.125 83.7917 388.125 77V69.9375C388.125 63.1458 388.917 57.0833 390.5 51.75C392.125 46.4167 394.5 41.8958 397.625 38.1875C400.75 34.4375 404.583 31.6042 409.125 29.6875C413.667 27.7292 418.875 26.75 424.75 26.75C431.708 26.75 437.521 27.9583 442.188 30.375C446.896 32.75 450.562 36.0417 453.188 40.25C455.854 44.4583 457.562 49.25 458.312 54.625H446.25C445.708 51.3333 444.625 48.3333 443 45.625C441.417 42.9167 439.146 40.75 436.188 39.125C433.229 37.4583 429.417 36.625 424.75 36.625C420.542 36.625 416.896 37.3958 413.812 38.9375C410.729 40.4792 408.188 42.6875 406.188 45.5625C404.188 48.4375 402.688 51.9167 401.688 56C400.729 60.0833 400.25 64.6875 400.25 69.8125V77C400.25 82.25 400.854 86.9375 402.062 91.0625C403.312 95.1875 405.083 98.7083 407.375 101.625C409.667 104.5 412.396 106.688 415.562 108.188C418.771 109.688 422.312 110.438 426.188 110.438C430.479 110.438 433.958 110.083 436.625 109.375C439.292 108.625 441.375 107.75 442.875 106.75C444.375 105.708 445.521 104.729 446.312 103.812V83.4375H425.25V73.6875H458.312ZM488.125 62V119H476.562V51.375H487.812L488.125 62ZM509.25 51L509.188 61.75C508.229 61.5417 507.312 61.4167 506.438 61.375C505.604 61.2917 504.646 61.25 503.562 61.25C500.896 61.25 498.542 61.6667 496.5 62.5C494.458 63.3333 492.729 64.5 491.312 66C489.896 67.5 488.771 69.2917 487.938 71.375C487.146 73.4167 486.625 75.6667 486.375 78.125L483.125 80C483.125 75.9167 483.521 72.0833 484.312 68.5C485.146 64.9167 486.417 61.75 488.125 59C489.833 56.2083 492 54.0417 494.625 52.5C497.292 50.9167 500.458 50.125 504.125 50.125C504.958 50.125 505.917 50.2292 507 50.4375C508.083 50.6042 508.833 50.7917 509.25 51ZM532.5 51.375V119H520.875V51.375H532.5ZM520 33.4375C520 31.5625 520.562 29.9792 521.688 28.6875C522.854 27.3958 524.562 26.75 526.812 26.75C529.021 26.75 530.708 27.3958 531.875 28.6875C533.083 29.9792 533.688 31.5625 533.688 33.4375C533.688 35.2292 533.083 36.7708 531.875 38.0625C530.708 39.3125 529.021 39.9375 526.812 39.9375C524.562 39.9375 522.854 39.3125 521.688 38.0625C520.562 36.7708 520 35.2292 520 33.4375ZM593.688 105.875V23H605.312V119H594.688L593.688 105.875ZM548.188 85.9375V84.625C548.188 79.4583 548.812 74.7708 550.062 70.5625C551.354 66.3125 553.167 62.6667 555.5 59.625C557.875 56.5833 560.688 54.25 563.938 52.625C567.229 50.9583 570.896 50.125 574.938 50.125C579.188 50.125 582.896 50.875 586.062 52.375C589.271 53.8333 591.979 55.9792 594.188 58.8125C596.438 61.6042 598.208 64.9792 599.5 68.9375C600.792 72.8958 601.688 77.375 602.188 82.375V88.125C601.729 93.0833 600.833 97.5417 599.5 101.5C598.208 105.458 596.438 108.833 594.188 111.625C591.979 114.417 589.271 116.562 586.062 118.062C582.854 119.521 579.104 120.25 574.812 120.25C570.854 120.25 567.229 119.396 563.938 117.688C560.688 115.979 557.875 113.583 555.5 110.5C553.167 107.417 551.354 103.792 550.062 99.625C548.812 95.4167 548.188 90.8542 548.188 85.9375ZM559.812 84.625V85.9375C559.812 89.3125 560.146 92.4792 560.812 95.4375C561.521 98.3958 562.604 101 564.062 103.25C565.521 105.5 567.375 107.271 569.625 108.562C571.875 109.812 574.562 110.438 577.688 110.438C581.521 110.438 584.667 109.625 587.125 108C589.625 106.375 591.625 104.229 593.125 101.562C594.625 98.8958 595.792 96 596.625 92.875V77.8125C596.125 75.5208 595.396 73.3125 594.438 71.1875C593.521 69.0208 592.312 67.1042 590.812 65.4375C589.354 63.7292 587.542 62.375 585.375 61.375C583.25 60.375 580.729 59.875 577.812 59.875C574.646 59.875 571.917 60.5417 569.625 61.875C567.375 63.1667 565.521 64.9583 564.062 67.25C562.604 69.5 561.521 72.125 560.812 75.125C560.146 78.0833 559.812 81.25 559.812 84.625Z" fill="black"/>
<circle cx="653" cy="98" r="21" fill="#615FFF"/>
</svg>
